<svg width="248" height="262" viewBox="0 0 248 262" fill="none" xmlns="http://www.w3.org/2000/svg">
  <path d="M175.43 0.0657927C177.876 -0.0475026 180.271 -0.00126439 182.718 0.104553C183.549 0.118364 184.379 0.132175 185.235 0.146405C189.636 0.24838 193.857 0.592744 198.186 1.4438C198.131 2.37165 198.077 3.2995 198.02 4.25547C198.026 9.02368 199.461 13.2852 200.836 17.8192C206.457 37.3048 209.803 57.2858 211.99 77.4158C212.134 78.6172 212.134 78.6172 212.28 79.843C213.294 89.5881 213.124 99.3849 213.105 109.169C213.099 112.307 213.105 115.444 213.111 118.581C213.11 120.591 213.109 122.602 213.107 124.613C213.109 125.542 213.111 126.472 213.113 127.43C213.108 128.747 213.108 128.747 213.104 130.091C213.103 130.854 213.102 131.617 213.101 132.403C212.944 135.519 212.437 138.611 211.99 141.7C203.205 141.378 194.419 141.057 185.368 140.726C185.693 137.512 186.019 134.297 186.354 130.986C186.462 127.763 186.537 124.56 186.554 121.337C186.561 120.446 186.568 119.556 186.575 118.638C186.592 115.773 186.599 112.909 186.6 110.045C186.601 109.064 186.602 108.084 186.603 107.074C187.061 70.8571 187.061 70.8571 177.48 36.5078C177.096 36.946 176.712 37.3842 176.317 37.8356C172.808 41.8204 169.251 45.755 165.648 49.6568C162.241 53.3476 158.879 57.0698 155.561 60.8388C151.313 65.6278 146.966 70.3313 142.646 75.0569C139.279 78.7451 135.92 82.4376 132.617 86.1818C127.792 91.6505 122.856 97.0207 117.927 102.397C114.023 106.664 110.169 110.945 106.488 115.402C108.038 119.341 110.877 121.738 114.006 124.472C114.54 124.947 115.074 125.421 115.623 125.91C119.129 129.018 122.666 132.091 126.223 135.141C130.205 138.578 134.115 142.096 138.04 145.596C139.683 147.057 141.326 148.518 142.97 149.979C152.83 158.745 162.69 167.511 172.55 176.277C173.361 176.997 174.172 177.718 175.007 178.461C176.677 179.946 178.346 181.432 180.014 182.92C183.707 186.211 187.404 189.493 191.161 192.713C195.073 196.077 198.885 199.546 202.7 203.016C205.438 205.502 208.194 207.961 211.004 210.367C214.347 213.229 217.61 216.173 220.864 219.133C224.734 222.652 228.637 226.123 232.615 229.523C236.206 232.644 239.71 235.86 243.226 239.062C245.336 241.063 245.336 241.063 247.486 242.022C246.908 245.492 245.613 247.191 243.168 249.707C242.504 250.398 241.84 251.088 241.156 251.8C240.459 252.51 239.762 253.221 239.043 253.953C238.342 254.679 237.641 255.405 236.919 256.152C235.189 257.942 233.453 259.724 231.71 261.502C226.257 257.629 221.278 253.483 216.427 248.901C215.127 247.687 213.827 246.475 212.525 245.263C211.916 244.695 211.306 244.127 210.678 243.542C208.22 241.272 205.686 239.095 203.135 236.927C200.459 234.611 197.845 232.228 195.228 229.847C191.35 226.32 187.436 222.844 183.454 219.433C179.99 216.427 176.599 213.341 173.193 210.272C171.047 208.351 168.884 206.458 166.696 204.584C162.802 201.243 159.012 197.792 155.218 194.342C152.48 191.856 149.724 189.397 146.914 186.991C143.571 184.129 140.308 181.185 137.054 178.225C133.176 174.698 129.262 171.222 125.28 167.811C121.816 164.805 118.425 161.719 115.019 158.65C112.264 156.184 109.468 153.771 106.657 151.368C104.94 149.863 103.252 148.34 101.573 146.794C100.792 146.077 100.792 146.077 99.994 145.344C98.9668 144.399 97.9429 143.45 96.9229 142.497C94.0488 139.855 91.1972 137.721 87.754 135.856C87.0257 136.705 86.2974 137.553 85.547 138.428C80.5635 144.214 75.5515 149.954 70.3141 155.518C66.9928 159.049 63.8147 162.653 60.7622 166.415C56.7719 171.318 52.4939 175.884 48.1272 180.456C44.0611 184.738 40.3079 189.159 36.6746 193.809C33.9195 196.908 30.831 199.477 27.608 202.088C26.6687 201.289 25.7294 200.491 24.7617 199.668C23.5125 198.608 22.2633 197.548 21.0141 196.487C20.397 195.962 19.78 195.438 19.1442 194.897C15.7696 192.035 12.3688 189.223 8.874 186.504C9.72328 182.092 12.3347 179.66 15.4062 176.52C16.4944 175.383 17.5818 174.246 18.6685 173.108C19.1933 172.561 19.7181 172.015 20.2587 171.452C21.9942 169.628 23.6703 167.76 25.3279 165.867C27.8615 162.975 30.436 160.123 33.031 157.284C35.6641 154.402 38.2795 151.509 40.8574 148.579C43.6287 145.435 46.4562 142.345 49.3 139.265C56.153 131.83 62.7141 124.271 69.02 116.376C68.4382 116.115 67.8564 115.854 67.2569 115.585C65.0545 114.416 63.5351 113.195 61.7328 111.494C61.1187 110.92 60.5046 110.346 59.8718 109.755C59.2302 109.147 58.5886 108.54 57.9275 107.914C56.5918 106.665 55.2554 105.417 53.918 104.17C53.2836 103.578 52.6492 102.985 51.9956 102.375C49.5179 100.081 46.9627 97.885 44.3893 95.6973C41.7129 93.3808 39.0991 90.9981 36.482 88.6168C32.6043 85.09 28.6905 81.6141 24.7078 78.2034C22.1953 76.0229 19.7258 73.7983 17.255 71.5718C8.88111 63.9667 8.88111 63.9667 0 56.9618C2.33086 51.4234 7.32475 48.1101 11.832 44.2998C12.7967 43.4799 13.7614 42.6601 14.7553 41.8153C22.8081 35.1206 22.8081 35.1206 26.622 34.5598C27.3827 38.8178 27.6131 42.0489 26.622 46.2478C27.0427 46.6044 27.4634 46.961 27.8969 47.3283C32.8484 51.5641 37.6699 55.9266 42.4736 60.324C46.5146 64.0204 50.5947 67.6705 54.696 71.3017C57.5142 73.8102 60.3104 76.3417 63.104 78.8768C64.5961 80.2281 66.0885 81.579 67.581 82.9298C68.9625 84.1817 70.3413 85.4366 71.7199 86.6916C72.5575 87.4475 73.3951 88.2033 74.2581 88.9821C74.9864 89.6425 75.7147 90.3029 76.4651 90.9833C79.4501 93.4758 82.5788 95.6576 85.782 97.8698C94.8497 88.3049 94.8497 88.3049 103.657 78.5078C106.196 75.6646 108.808 72.8904 111.418 70.1108C115.154 66.1314 118.834 62.1202 122.43 58.0157C125.221 54.8824 128.089 51.8194 130.949 48.7477C135.321 44.0504 139.643 39.3103 143.956 34.5598C148.269 29.8086 152.592 25.0674 156.965 20.37C160.536 16.5339 164.107 12.6974 167.62 8.80968C168.128 8.24845 168.637 7.68722 169.161 7.10898C170.731 5.31649 170.731 5.31649 171.668 2.71076C173.536 0.469803 173.536 0.469803 175.43 0.0657927Z" fill="black"/>
  <path d="M55.216 226.438C79.6195 226.438 104.023 226.438 129.166 226.438C129.166 229.652 129.166 232.866 129.166 236.178C104.763 236.178 80.359 236.178 55.216 236.178C55.216 232.964 55.216 229.749 55.216 226.438Z" fill="black"/>
</svg>
